<svg width="118" height="24" viewBox="0 0 118 24" fill="none" xmlns="http://www.w3.org/2000/svg">
<rect x="0.25" y="0.25" width="35.5" height="23.5" stroke="black" stroke-opacity="0.3" stroke-width="0.5"/>
<path fill-rule="evenodd" clip-rule="evenodd" d="M5.71989 8.00138L5.76156 8.00081C6.05717 7.99574 6.7796 7.98336 7.09439 9.05314C7.31721 9.81039 7.67216 11.0508 8.15923 12.7744H8.35759C8.87992 10.9573 9.23874 9.71686 9.43404 9.05314C9.74828 7.98523 10.5057 7.9957 10.8729 8.00078C10.8963 8.0011 10.9181 8.0014 10.9381 8.0014L13.5168 8.0014V16.0788H10.8885V11.3186H10.7123L9.24714 16.0788H7.26968L5.80454 11.3151H5.62829V16.0788H3V8.0014L5.71989 8.00138ZM17.291 8.00142V12.7651H17.5007L19.2829 8.84796C19.6289 8.06844 20.3662 8.00142 20.3662 8.00142H22.9096V16.0788H20.2264V11.3151H20.0168L18.2695 15.2322C17.9235 16.0082 17.1512 16.0788 17.1512 16.0788H14.6078V8.00142H17.291ZM29.3312 13.6728C30.6325 13.6728 31.8079 12.9079 32.1822 11.84H23.9658V16.0789H26.5174V13.6728H29.3312Z" fill="#40A548"/>
<path d="M29.4575 8.00127H23.8352C23.969 9.79957 25.507 11.339 27.0991 11.339H32.3627C32.6664 9.84443 31.6207 8.00127 29.4575 8.00127Z" fill="#1291D0"/>
<rect x="41.25" y="0.25" width="35.5" height="23.5" stroke="black" stroke-opacity="0.3" stroke-width="0.5"/>
<path d="M56.8221 15.9091H54.4253L55.9244 7.15863H58.3211L56.8221 15.9091Z" fill="#15195A"/>
<path d="M65.511 7.37254C65.0382 7.19549 64.2884 7 63.3613 7C60.9944 7 59.3276 8.19149 59.3174 9.89496C59.2977 11.1518 60.5107 11.8498 61.418 12.2689C62.3452 12.6971 62.6605 12.9766 62.6605 13.3583C62.651 13.9445 61.9112 14.2147 61.2211 14.2147C60.2642 14.2147 59.7515 14.0754 58.9723 13.7493L58.6567 13.6095L58.3213 15.5738C58.8834 15.8155 59.9191 16.0301 60.9944 16.0395C63.5092 16.0395 65.1465 14.8664 65.1659 13.0511C65.1755 12.055 64.5349 11.2917 63.154 10.668C62.3158 10.2676 61.8024 9.99765 61.8024 9.58799C61.8122 9.21557 62.2366 8.83412 63.1829 8.83412C63.9621 8.81544 64.5346 8.99225 64.9682 9.16918L65.185 9.26209L65.511 7.37254Z" fill="#15195A"/>
<path fill-rule="evenodd" clip-rule="evenodd" d="M69.8023 7.15869H71.6562L73.5898 15.909H71.3706C71.3706 15.909 71.1534 14.9036 71.0846 14.5964H68.0073C67.9183 14.829 67.5043 15.909 67.5043 15.909H64.9894L68.5496 7.88472C68.7962 7.31681 69.2306 7.15869 69.8023 7.15869ZM69.6555 10.3609C69.6555 10.3609 68.896 12.3065 68.6986 12.8092H70.6908C70.5922 12.3717 70.1383 10.2771 70.1383 10.2771L69.9708 9.52312C69.9003 9.71727 69.7983 9.9842 69.7295 10.1642C69.6828 10.2863 69.6515 10.3684 69.6555 10.3609Z" fill="#15195A"/>
<path d="M44.0395 7.15862H47.8956C48.4183 7.17705 48.8425 7.3353 48.9805 7.89417L49.8181 11.9124C49.8184 11.9134 49.8187 11.9144 49.819 11.9154L50.0755 13.1256L52.4227 7.15862H54.9571L51.1898 15.8998H48.6553L46.519 8.29656C45.7819 7.88971 44.9406 7.56249 44 7.33542L44.0395 7.15862Z" fill="#15195A"/>
<rect x="82.25" y="0.25" width="35.5" height="23.5" stroke="black" stroke-opacity="0.3" stroke-width="0.5"/>
<path d="M103.09 18.1102H96.6647V6.57007H103.09V18.1102Z" fill="#FF5F00"/>
<path d="M97.0759 12.3393C97.0759 9.99832 98.1726 7.91304 99.8804 6.56921C98.6315 5.58653 97.0553 5 95.3424 5C91.2872 5 88 8.28586 88 12.3393C88 16.3927 91.2872 19.6786 95.3424 19.6786C97.0553 19.6786 98.6315 19.0921 99.8804 18.1094C98.1726 16.7655 97.0759 14.6803 97.0759 12.3393Z" fill="#EB001B"/>
<path d="M111.755 12.3393C111.755 16.3928 108.468 19.6786 104.412 19.6786C102.699 19.6786 101.123 19.0921 99.874 18.1094C101.582 16.7656 102.679 14.6803 102.679 12.3393C102.679 9.99834 101.582 7.91307 99.874 6.56923C101.123 5.58655 102.699 5.00003 104.412 5.00003C108.468 5.00003 111.755 8.28589 111.755 12.3393Z" fill="#F79E1B"/>
</svg>
