<svg width="82" height="24" viewBox="0 0 82 24" fill="none" xmlns="http://www.w3.org/2000/svg">
<rect width="81.6" height="24" transform="translate(0.199951)" fill="black"/>
<g clip-path="url(#clip0_294_1932)">
<path d="M19.327 7.20001H17.7252V15.3227H19.327V7.20001Z" fill="white"/>
<path d="M15.8852 7.65453H14.2834V15.777H15.8852V7.65453Z" fill="white"/>
<path d="M12.4435 8.16195H10.8417V16.286H12.4435V8.16195Z" fill="white"/>
<path d="M9.00168 8.67501H7.3999L7.39991 16.8H9.00169L9.00168 8.67501Z" fill="white"/>
<path d="M61.633 11.5276L59.054 8.66002H57.5462V15.2993H59.1204V11.0633L61.475 13.573H61.766L64.0801 11.0633V15.2993H65.6544V8.66002H64.1466L61.633 11.5276Z" fill="white"/>
<path d="M73.1543 8.66002L69.2525 12.9753V8.66002H67.6782V15.2993H69.1205L73.0224 10.984V15.2993H74.5966V8.66002H73.1543Z" fill="white"/>
<path d="M49.0669 11.0894C49.0669 12.1465 49.645 12.9792 50.5323 13.3283L48.8685 15.2993H50.7953L52.3089 13.5063H53.9467V15.2993H55.5209V8.66002H51.5131C50.0188 8.66002 49.0669 9.68227 49.0669 11.0894ZM53.9476 10.1223V12.0856H51.805C51.0901 12.0856 50.7067 11.6871 50.7067 11.103C50.7067 10.5188 51.1036 10.1204 51.805 10.1204L53.9476 10.1223Z" fill="white"/>
<path d="M41.7515 9.98789C41.6552 12.2713 41.1735 13.7452 40.2303 13.7452H39.9942V15.339L40.2457 15.3525C42.1369 15.458 43.1822 13.7984 43.3537 10.1736H45.8413V15.2993H47.4126V8.66002H41.8045L41.7515 9.98789Z" fill="white"/>
<path d="M35.8256 8.56726C33.6964 8.56726 32.1646 10.0412 32.1646 11.9793C32.1646 13.9841 33.8313 15.4058 35.8256 15.4058C37.9027 15.4058 39.5165 13.9048 39.5165 11.9793C39.5165 10.0537 37.9027 8.56726 35.8256 8.56726ZM35.8256 13.812C34.6222 13.812 33.8024 13.0286 33.8024 11.9793C33.8024 10.9038 34.6232 10.1417 35.8256 10.1417C37.0279 10.1417 37.8757 10.9387 37.8757 11.9793C37.8757 13.0199 37.0164 13.812 35.8256 13.812Z" fill="white"/>
<path d="M30.495 8.67255H24.9389L24.8859 10.0004C24.8069 11.9134 24.3078 13.7326 23.3647 13.7587L22.9282 13.7722V16.8L24.5159 16.7968V15.3003H30.0316V16.7968H31.6328V13.7587H30.495V8.67255ZM28.9207 13.7587H25.5613C26.1297 12.896 26.4341 11.6474 26.4871 10.1871H28.9207V13.7587Z" fill="white"/>
</g>
<defs>
<clipPath id="clip0_294_1932">
<rect width="67.2" height="9.6" fill="white" transform="translate(7.3999 7.20001)"/>
</clipPath>
</defs>
</svg>
