<svg width="73" height="20" viewBox="0 0 73 20" fill="none" xmlns="http://www.w3.org/2000/svg">
<path fill-rule="evenodd" clip-rule="evenodd" d="M11.1607 15.1452H7.99376C3.05326 15.1452 6.64252 4.83403 10.8018 4.83403H15.8057C16.608 4.83403 18.0226 4.97928 18.7193 3.02905L19.7961 0H12.9343C9.21836 0 6.3258 1.28631 4.2356 3.44399C0.625229 7.13692 -0.599339 12.9046 0.266307 15.6639C1.08972 18.2158 3.32773 19.8963 6.83252 19.9378L9.55615 19.9585H12.9131L13.7366 17.5311C14.3489 15.8091 12.9765 15.1452 11.1607 15.1452ZM49.7136 10.8714L50.748 7.57263H39.7059C37.8691 7.57263 37.0456 8.07055 36.729 9.10786L35.6944 12.4066H46.7366C48.5735 12.4066 49.3969 11.9087 49.7136 10.8714ZM34.0476 16.6805L33.013 19.9792H44.0552C45.871 19.9792 46.7155 19.4813 47.0322 18.444L48.0668 15.1452H37.0245C35.2088 15.1452 34.3853 15.6432 34.0476 16.6805ZM52.2894 3.3195L53.3242 0.0207466H42.2817C40.4449 0.0207466 39.6215 0.518671 39.3048 1.55602L38.2702 4.85478H49.3125C51.1284 4.85478 51.9515 4.35685 52.2894 3.3195ZM35.61 3.98341C35.1454 0.912865 33.4775 0.0207466 29.4237 0.0207466H22.0341L17.727 12.4066H20.4506C22.0763 12.4066 22.8998 12.4274 23.7654 10.1452L25.56 4.83403H28.3047C30.6483 4.83403 30.1205 7.71786 28.9381 10.5187C27.8825 12.9875 26.0456 15.166 23.8287 15.166H19.2472C17.4103 15.166 16.5658 15.6639 16.2279 16.7013L15.0878 20H18.4448L21.7385 19.9792C24.6521 19.9585 27.0379 19.751 29.8249 17.2822C32.7808 14.6473 36.2011 7.88381 35.61 3.98341ZM72.7273 0H66.33L60.3126 6.2863C59.6156 7.01244 58.8979 7.73857 58.2009 8.58923H58.1376L61.1357 0H55.9211L48.8902 19.9792H54.1052L56.343 13.693L58.6654 11.7635L60.5025 17.4482C61.0723 19.2116 61.664 19.9792 62.9308 19.9792H66.9211L62.8249 8.81744L72.7273 0Z" fill="#00B33C"/>
</svg>
