<svg width="139" height="36" viewBox="0 0 139 36" fill="none" xmlns="http://www.w3.org/2000/svg">
<path d="M20.1696 10.0395C19.9882 11.5881 19.4557 12.9478 18.5718 14.1187C17.688 15.2895 16.5171 16.1961 15.0554 16.8419C13.5937 17.4878 11.9355 17.8126 10.0847 17.8126C8.08296 17.8126 6.31898 17.4425 4.79309 16.7022C3.26721 15.9619 2.08869 14.9194 1.254 13.5749C0.419212 12.2302 0 10.674 0 8.90631C0 7.13869 0.419212 5.58255 1.254 4.23788C2.08869 2.89322 3.26721 1.8508 4.79309 1.11052C6.31898 0.370135 8.08296 0 10.0847 0C11.9355 0 13.5937 0.321065 15.0554 0.966937C16.5171 1.61281 17.688 2.52308 18.5718 3.69401C19.4557 4.86494 19.9882 6.22468 20.1696 7.77323H14.3C14.096 6.88937 13.6352 6.20201 12.9138 5.7147C12.1923 5.22748 11.2481 4.98575 10.0847 4.98575C9.21605 4.98575 8.46818 5.14067 7.83738 5.45415C7.20659 5.76762 6.72312 6.22083 6.39083 6.81003C6.05843 7.39934 5.89218 8.09803 5.89218 8.90631C5.89218 9.71469 6.05843 10.4134 6.39083 11.0026C6.72312 11.5918 7.20659 12.0413 7.83738 12.3549C8.46818 12.6683 9.21605 12.827 10.0847 12.827C11.2707 12.827 12.2188 12.5927 12.9289 12.1282C13.639 11.6636 14.096 10.9686 14.3 10.0395H20.1696ZM31.886 7.68257C32.4676 7.68257 32.9171 7.54284 33.2307 7.2671C33.5442 6.99137 33.699 6.60231 33.699 6.09617C33.699 5.59014 33.5442 5.19723 33.2307 4.9216C32.9171 4.64586 32.4676 4.50987 31.886 4.50987H27.9881V7.68257H31.886ZM22.1412 0.407977H32.7926C34.1371 0.407977 35.3231 0.642128 36.3505 1.11426C37.3778 1.5864 38.1749 2.25494 38.7414 3.11613C39.3079 3.97733 39.5913 4.97068 39.5913 6.09617C39.5913 7.29736 39.2664 8.34362 38.613 9.23497C37.9595 10.1263 37.0493 10.7911 35.8859 11.2292L40.2711 17.4047H33.5857L29.7331 11.7391H27.9881V17.4047H22.1412V0.407977ZM57.1546 10.9233H48.0329L47.7271 12.7817H57.9931V17.4047H41.5402L42.7866 8.90631L41.5402 0.407977H57.8798V5.03108H47.7271L48.0329 6.88937H57.1546V10.9233ZM81.358 17.4047H75.1259L73.9588 14.5493H66.0496L64.8825 17.4047H58.6503L66.1062 0.407977H73.9021L81.358 17.4047ZM72.0665 9.90351L70.0042 4.82709L67.9419 9.90351H72.0665ZM97.2897 0.407977V5.62029H91.1709V17.4047H85.3239V5.62029H79.2051V0.407977H97.2897ZM108.258 17.8126C106.211 17.8126 104.406 17.4425 102.842 16.7022C101.278 15.9619 100.07 14.9194 99.2123 13.5749C98.3548 12.2302 97.9243 10.674 97.9243 8.90631C97.9243 7.13869 98.3548 5.58255 99.2123 4.23788C100.07 2.89322 101.278 1.8508 102.842 1.11052C104.406 0.370135 106.211 0 108.258 0C110.306 0 112.111 0.370135 113.675 1.11052C115.238 1.8508 116.451 2.89322 117.308 4.23788C118.166 5.58255 118.592 7.13869 118.592 8.90631C118.592 10.674 118.166 12.2302 117.308 13.5749C116.451 14.9194 115.238 15.9619 113.675 16.7022C112.111 17.4425 110.306 17.8126 108.258 17.8126ZM103.816 8.90631C103.816 9.66936 103.994 10.3266 104.349 10.8818C104.704 11.437 105.218 11.8638 105.886 12.1584C106.555 12.453 107.344 12.6003 108.258 12.6003C109.172 12.6003 109.966 12.453 110.634 12.1584C111.303 11.8638 111.812 11.437 112.168 10.8818C112.523 10.3266 112.7 9.66936 112.7 8.90631C112.7 8.14337 112.523 7.48242 112.168 6.92721C111.812 6.3719 111.303 5.94895 110.634 5.65429C109.966 5.35974 109.172 5.21241 108.258 5.21241C107.344 5.21241 106.555 5.35974 105.886 5.65429C105.218 5.94895 104.704 6.3719 104.349 6.92721C103.994 7.48242 103.816 8.14337 103.816 8.90631ZM130.422 7.68257C131.004 7.68257 131.453 7.54284 131.767 7.2671C132.08 6.99137 132.235 6.60231 132.235 6.09617C132.235 5.59014 132.08 5.19723 131.767 4.9216C131.453 4.64586 131.004 4.50987 130.422 4.50987H126.524V7.68257H130.422ZM120.677 0.407977H131.329C132.673 0.407977 133.859 0.642128 134.887 1.11426C135.914 1.5864 136.711 2.25494 137.278 3.11613C137.844 3.97733 138.127 4.97068 138.127 6.09617C138.127 7.29736 137.802 8.34362 137.149 9.23497C136.496 10.1263 135.585 10.7911 134.422 11.2292L138.807 17.4047H132.122L128.269 11.7391H126.524V17.4047H120.677V0.407977Z" fill="white"/>
<path d="M23.0505 27.6485H17.0357V28.7245H22.7745V31.6905H17.0357V35.0289H13.4766V24.6825H23.0505V27.6485ZM36.5974 35.0289H32.8037L32.0932 33.2907H27.2787L26.5683 35.0289H22.7745L27.3132 24.6825H32.0588L36.5974 35.0289ZM30.9413 30.4627L29.686 27.3725L28.4306 30.4627H30.9413ZM48.6269 30.5454C48.5165 31.4881 48.1923 32.3159 47.6543 33.0286C47.1163 33.7413 46.4036 34.2932 45.5138 34.6863C44.624 35.0795 43.6146 35.2772 42.488 35.2772C41.2693 35.2772 40.1956 35.0519 39.2667 34.6013C38.3379 34.1507 37.6206 33.516 37.1124 32.6975C36.6042 31.879 36.3491 30.9317 36.3491 29.8557C36.3491 28.7797 36.6042 27.8324 37.1124 27.0138C37.6206 26.1954 38.3379 25.5607 39.2667 25.1101C40.1956 24.6595 41.2693 24.4341 42.488 24.4341C43.6146 24.4341 44.624 24.6296 45.5138 25.0228C46.4036 25.4159 47.1163 25.9701 47.6543 26.6828C48.1923 27.3955 48.5165 28.2232 48.6269 29.1659H45.0539C44.9298 28.6279 44.6493 28.2094 44.2101 27.9129C43.7709 27.6162 43.1961 27.4691 42.488 27.4691C41.9592 27.4691 41.5039 27.5633 41.1199 27.7542C40.736 27.945 40.4416 28.2209 40.2393 28.5796C40.037 28.9382 39.9358 29.3637 39.9358 29.8557C39.9358 30.3477 40.037 30.773 40.2393 31.1317C40.4416 31.4904 40.736 31.764 41.1199 31.9549C41.5039 32.1457 41.9592 32.2423 42.488 32.2423C43.21 32.2423 43.787 32.0997 44.2193 31.8169C44.6515 31.5341 44.9298 31.111 45.0539 30.5454H48.6269ZM59.9803 24.6825V27.8554H56.2556V35.0289H52.6965V27.8554H48.9717V24.6825H59.9803ZM66.6573 35.2772C65.4112 35.2772 64.3121 35.0519 63.3602 34.6013C62.4083 34.1507 61.6726 33.516 61.1507 32.6975C60.6288 31.879 60.3667 30.9317 60.3667 29.8557C60.3667 28.7797 60.6288 27.8324 61.1507 27.0138C61.6726 26.1954 62.4083 25.5607 63.3602 25.1101C64.3121 24.6595 65.4112 24.4341 66.6573 24.4341C67.9035 24.4341 69.0024 24.6595 69.9544 25.1101C70.9063 25.5607 71.6443 26.1954 72.1662 27.0138C72.6881 27.8324 72.948 28.7797 72.948 29.8557C72.948 30.9317 72.6881 31.879 72.1662 32.6975C71.6443 33.516 70.9063 34.1507 69.9544 34.6013C69.0024 35.0519 67.9035 35.2772 66.6573 35.2772ZM63.9534 29.8557C63.9534 30.3201 64.0615 30.7202 64.2775 31.0581C64.4937 31.3961 64.8065 31.656 65.2134 31.8353C65.6203 32.0147 66.1009 32.1043 66.6573 32.1043C67.2137 32.1043 67.6966 32.0147 68.1035 31.8353C68.5104 31.656 68.8208 31.3961 69.037 31.0581C69.2531 30.7202 69.3611 30.3201 69.3611 29.8557C69.3611 29.3912 69.2531 28.9889 69.037 28.6509C68.8208 28.3129 68.5104 28.0554 68.1035 27.8761C67.6966 27.6967 67.2137 27.6071 66.6573 27.6071C66.1009 27.6071 65.6203 27.6967 65.2134 27.8761C64.8065 28.0554 64.4937 28.3129 64.2775 28.6509C64.0615 28.9889 63.9534 29.3912 63.9534 29.8557ZM80.1491 29.1107C80.5032 29.1107 80.7768 29.0257 80.9676 28.8578C81.1585 28.69 81.2527 28.4531 81.2527 28.145C81.2527 27.837 81.1585 27.5978 80.9676 27.43C80.7768 27.2621 80.5032 27.1794 80.1491 27.1794H77.7763V29.1107H80.1491ZM74.2171 24.6825H80.7009C81.5195 24.6825 82.2414 24.825 82.8667 25.1124C83.4921 25.3998 83.9773 25.8067 84.3221 26.3309C84.667 26.8552 84.8395 27.4599 84.8395 28.145C84.8395 28.8762 84.6418 29.5131 84.244 30.0557C83.8463 30.5984 83.2921 31.003 82.5839 31.2697L85.2533 35.0289H81.1838L78.8386 31.5801H77.7763V35.0289H74.2171V24.6825ZM89.3367 30.9041L84.5084 24.6825H88.4124L91.1094 28.1589L93.7926 24.6825H97.6966L92.8959 30.8489V35.0289H89.3367V30.9041Z" fill="white"/>
<path fill-rule="evenodd" clip-rule="evenodd" d="M138.807 28.5264H103.262V31.2083H138.807L138.703 30.5378L138.6 29.8674L138.703 29.197L138.807 28.5264Z" fill="white"/>
<path d="M5.02446 29.8468L1.08081 32.0052V35.0291L7.91164 31.1855V28.5261L1.08081 24.6826V27.7064L5.02446 29.8468Z" fill="white"/>
</svg>
