<svg width="34" height="50" viewBox="0 0 34 50" fill="none" xmlns="http://www.w3.org/2000/svg">
<path d="M10.4591 49.3067H23.5728V48.8442H21.7731C19.3064 48.8442 18.996 48.638 18.996 46.1698V3.96578C18.996 1.49708 19.3046 1.29181 21.7731 1.29181H23.5728V0.725708H10.4591V1.18868H12.2588C14.7273 1.18868 14.9848 1.39619 14.9848 3.86315V46.1698C14.9848 48.6362 14.7256 48.8442 12.2588 48.8442H10.4591V49.3067Z" fill="white"/>
<path d="M25.9833 32.9105V16.4025H25.5206V18.2027C25.5206 22.6037 23.3935 23.4904 20.8918 23.6308V24.6044C23.3945 24.7535 25.5206 25.681 25.5206 30.0817V32.9105H25.9833Z" fill="white"/>
<path d="M13.0892 23.654H8.88742V10.1805C8.88742 9.04902 8.37275 8.12332 7.7557 7.50602V7.45457H13.0892V6.52888H0.350586V6.99186H2.15005C4.6185 6.99186 4.87621 7.24907 4.87621 9.71777V40.3159C4.87621 42.7841 4.6185 43.041 2.15005 43.041H0.350586V43.504H13.0892V42.5783H7.7557V42.5264C8.37275 41.9096 8.88742 40.9839 8.88742 39.8529V24.5797H13.0892V23.654Z" fill="white"/>
<path d="M20.8918 7.45457H21.9042C26.8411 7.45457 29.5073 9.35868 29.8237 14.9114L30.0292 18.5111H30.9547L30.0292 4.57459L29.5665 4.6093L29.7206 6.99186H29.6696C29.3095 6.63201 28.5891 6.52888 27.7665 6.52888H20.8918V7.45457Z" fill="white"/>
<path d="M20.8918 43.504H30.5436C31.3667 43.504 32.0864 43.4014 32.4465 43.041H32.4982L32.3438 45.4238L32.8068 45.4581L33.6808 31.5221H32.8578L32.5491 35.6359C32.1793 40.5716 29.8232 42.5783 24.887 42.5783H20.8918V43.504Z" fill="white"/>
</svg>
