<svg width="14" height="11" viewBox="0 0 14 11" fill="none" xmlns="http://www.w3.org/2000/svg">
<path d="M4.97569 8.35714H1M13 8.35714H12.9933M12.9933 2.64286H8.99556M1.00666 2.64286H1M8.95133 6.21429C10.0492 6.21429 10.9392 7.17368 10.9392 8.35714C10.9392 9.54061 10.0492 10.5 8.95133 10.5C7.85347 10.5 6.96348 9.54061 6.96348 8.35714C6.96348 7.17368 7.85347 6.21429 8.95133 6.21429ZM4.97567 0.5C6.07353 0.5 6.96352 1.45939 6.96352 2.64286C6.96352 3.82632 6.07353 4.78571 4.97567 4.78571C3.87782 4.78571 2.98783 3.82632 2.98783 2.64286C2.98783 1.45939 3.87782 0.5 4.97567 0.5Z" stroke="#262626" stroke-linecap="round"/>
</svg>
