<svg width="30" height="30" viewBox="0 0 30 30" fill="none" xmlns="http://www.w3.org/2000/svg">
<path d="M9.99791 15C9.99791 12.2387 12.2351 9.9996 14.9957 9.9996C17.7562 9.9996 19.9946 12.2387 19.9946 15C19.9946 17.7613 17.7562 20.0004 14.9957 20.0004C12.2351 20.0004 9.99791 17.7613 9.99791 15ZM7.29557 15C7.29557 19.254 10.7429 22.7023 14.9957 22.7023C19.2484 22.7023 22.6958 19.254 22.6958 15C22.6958 10.746 19.2484 7.29768 14.9957 7.29768C10.7429 7.29768 7.29557 10.746 7.29557 15ZM21.2011 6.99228C21.201 7.34829 21.3064 7.69634 21.504 7.99243C21.7016 8.28852 21.9825 8.51934 22.3113 8.65571C22.6401 8.79208 23.0019 8.82787 23.351 8.75855C23.7 8.68924 24.0207 8.51793 24.2725 8.2663C24.5243 8.01467 24.6958 7.69401 24.7654 7.34487C24.8349 6.99573 24.7994 6.6338 24.6634 6.30483C24.5273 5.97587 24.2968 5.69466 24.0009 5.49675C23.7051 5.29885 23.3572 5.19314 23.0013 5.193H23.0006C22.5235 5.19322 22.0661 5.38284 21.7287 5.7202C21.3913 6.05756 21.2015 6.51508 21.2011 6.99228ZM8.93742 27.2096C7.4754 27.143 6.68075 26.8994 6.15266 26.6936C5.45254 26.421 4.95301 26.0963 4.4278 25.5716C3.90259 25.047 3.57749 24.5478 3.30612 23.8475C3.10026 23.3195 2.85673 22.5244 2.79027 21.0619C2.71757 19.4808 2.70306 19.0058 2.70306 15.0001C2.70306 10.9944 2.71877 10.5208 2.79027 8.93832C2.85685 7.47588 3.10218 6.68232 3.30612 6.15276C3.57869 5.45244 3.90331 4.95276 4.4278 4.4274C4.95229 3.90204 5.45135 3.57684 6.15266 3.3054C6.68051 3.09948 7.4754 2.85588 8.93742 2.7894C10.5181 2.71668 10.9929 2.70216 14.9957 2.70216C18.9984 2.70216 19.4737 2.71788 21.0557 2.7894C22.5177 2.856 23.3111 3.1014 23.8405 3.3054C24.5406 3.57684 25.0401 3.90276 25.5653 4.4274C26.0905 4.95204 26.4144 5.45244 26.687 6.15276C26.8929 6.68076 27.1364 7.47588 27.2029 8.93832C27.2756 10.5208 27.2901 10.9944 27.2901 15.0001C27.2901 19.0058 27.2756 19.4795 27.2029 21.0619C27.1363 22.5244 26.8916 23.3192 26.687 23.8475C26.4144 24.5478 26.0898 25.0475 25.5653 25.5716C25.0408 26.0958 24.5406 26.421 23.8405 26.6936C23.3126 26.8996 22.5177 27.1432 21.0557 27.2096C19.4751 27.2824 19.0002 27.2969 14.9957 27.2969C10.9911 27.2969 10.5176 27.2824 8.93742 27.2096ZM8.81325 0.09084C7.21688 0.16356 6.12603 0.41676 5.17339 0.78756C4.18679 1.17048 3.35159 1.6842 2.51699 2.51772C1.68239 3.35124 1.17014 4.188 0.787333 5.17488C0.41664 6.1284 0.163513 7.21896 0.0908138 8.8158C0.0169151 10.4152 0 10.9265 0 15C0 19.0735 0.0169151 19.5848 0.0908138 21.1842C0.163513 22.7812 0.41664 23.8716 0.787333 24.8251C1.17014 25.8114 1.68251 26.6491 2.51699 27.4823C3.35147 28.3154 4.18679 28.8284 5.17339 29.2124C6.12783 29.5832 7.21688 29.8364 8.81325 29.9092C10.413 29.9819 10.9233 30 14.9957 30C19.068 30 19.5792 29.9831 21.1781 29.9092C22.7746 29.8364 23.8647 29.5832 24.818 29.2124C25.8039 28.8284 26.6397 28.3158 27.4743 27.4823C28.3089 26.6488 28.8201 25.8114 29.204 24.8251C29.5747 23.8716 29.829 22.781 29.9005 21.1842C29.9732 19.5836 29.9901 19.0735 29.9901 15C29.9901 10.9265 29.9732 10.4152 29.9005 8.8158C29.8278 7.21884 29.5747 6.1278 29.204 5.17488C28.8201 4.1886 28.3076 3.35256 27.4743 2.51772C26.6411 1.68288 25.8039 1.17048 24.8192 0.78756C23.8647 0.41676 22.7745 0.16236 21.1793 0.09084C19.5804 0.01812 19.0692 0 14.9969 0C10.9245 0 10.413 0.01692 8.81325 0.09084Z" fill="white"/>
<path d="M9.99791 15C9.99791 12.2387 12.2351 9.9996 14.9957 9.9996C17.7562 9.9996 19.9946 12.2387 19.9946 15C19.9946 17.7613 17.7562 20.0004 14.9957 20.0004C12.2351 20.0004 9.99791 17.7613 9.99791 15ZM7.29557 15C7.29557 19.254 10.7429 22.7023 14.9957 22.7023C19.2484 22.7023 22.6958 19.254 22.6958 15C22.6958 10.746 19.2484 7.29768 14.9957 7.29768C10.7429 7.29768 7.29557 10.746 7.29557 15ZM21.2011 6.99228C21.201 7.34829 21.3064 7.69634 21.504 7.99243C21.7016 8.28852 21.9825 8.51934 22.3113 8.65571C22.6401 8.79208 23.0019 8.82787 23.351 8.75855C23.7 8.68924 24.0207 8.51793 24.2725 8.2663C24.5243 8.01467 24.6958 7.69401 24.7654 7.34487C24.8349 6.99573 24.7994 6.6338 24.6634 6.30483C24.5273 5.97587 24.2968 5.69466 24.0009 5.49675C23.7051 5.29885 23.3572 5.19314 23.0013 5.193H23.0006C22.5235 5.19322 22.0661 5.38284 21.7287 5.7202C21.3913 6.05756 21.2015 6.51508 21.2011 6.99228ZM8.93742 27.2096C7.4754 27.143 6.68075 26.8994 6.15266 26.6936C5.45254 26.421 4.95301 26.0963 4.4278 25.5716C3.90259 25.047 3.57749 24.5478 3.30612 23.8475C3.10026 23.3195 2.85673 22.5244 2.79027 21.0619C2.71757 19.4808 2.70306 19.0058 2.70306 15.0001C2.70306 10.9944 2.71877 10.5208 2.79027 8.93832C2.85685 7.47588 3.10218 6.68232 3.30612 6.15276C3.57869 5.45244 3.90331 4.95276 4.4278 4.4274C4.95229 3.90204 5.45135 3.57684 6.15266 3.3054C6.68051 3.09948 7.4754 2.85588 8.93742 2.7894C10.5181 2.71668 10.9929 2.70216 14.9957 2.70216C18.9984 2.70216 19.4737 2.71788 21.0557 2.7894C22.5177 2.856 23.3111 3.1014 23.8405 3.3054C24.5406 3.57684 25.0401 3.90276 25.5653 4.4274C26.0905 4.95204 26.4144 5.45244 26.687 6.15276C26.8929 6.68076 27.1364 7.47588 27.2029 8.93832C27.2756 10.5208 27.2901 10.9944 27.2901 15.0001C27.2901 19.0058 27.2756 19.4795 27.2029 21.0619C27.1363 22.5244 26.8916 23.3192 26.687 23.8475C26.4144 24.5478 26.0898 25.0475 25.5653 25.5716C25.0408 26.0958 24.5406 26.421 23.8405 26.6936C23.3126 26.8996 22.5177 27.1432 21.0557 27.2096C19.4751 27.2824 19.0002 27.2969 14.9957 27.2969C10.9911 27.2969 10.5176 27.2824 8.93742 27.2096ZM8.81325 0.09084C7.21688 0.16356 6.12603 0.41676 5.17339 0.78756C4.18679 1.17048 3.35159 1.6842 2.51699 2.51772C1.68239 3.35124 1.17014 4.188 0.787333 5.17488C0.41664 6.1284 0.163513 7.21896 0.0908138 8.8158C0.0169151 10.4152 0 10.9265 0 15C0 19.0735 0.0169151 19.5848 0.0908138 21.1842C0.163513 22.7812 0.41664 23.8716 0.787333 24.8251C1.17014 25.8114 1.68251 26.6491 2.51699 27.4823C3.35147 28.3154 4.18679 28.8284 5.17339 29.2124C6.12783 29.5832 7.21688 29.8364 8.81325 29.9092C10.413 29.9819 10.9233 30 14.9957 30C19.068 30 19.5792 29.9831 21.1781 29.9092C22.7746 29.8364 23.8647 29.5832 24.818 29.2124C25.8039 28.8284 26.6397 28.3158 27.4743 27.4823C28.3089 26.6488 28.8201 25.8114 29.204 24.8251C29.5747 23.8716 29.829 22.781 29.9005 21.1842C29.9732 19.5836 29.9901 19.0735 29.9901 15C29.9901 10.9265 29.9732 10.4152 29.9005 8.8158C29.8278 7.21884 29.5747 6.1278 29.204 5.17488C28.8201 4.1886 28.3076 3.35256 27.4743 2.51772C26.6411 1.68288 25.8039 1.17048 24.8192 0.78756C23.8647 0.41676 22.7745 0.16236 21.1793 0.09084C19.5804 0.01812 19.0692 0 14.9969 0C10.9245 0 10.413 0.01692 8.81325 0.09084Z" fill="white"/>
</svg>
