<svg width="19" height="28" viewBox="0 0 19 28" fill="none" xmlns="http://www.w3.org/2000/svg">
<path d="M5.7461 27.6533H13.1133V27.3935H12.1022C10.7165 27.3935 10.5421 27.2776 10.5421 25.891V2.18086C10.5421 0.79395 10.7155 0.678632 12.1022 0.678632H13.1133V0.360596H5.7461V0.620695H6.75717C8.14394 0.620695 8.28859 0.737273 8.28859 2.12321V25.891C8.28859 27.2766 8.14296 27.3935 6.75717 27.3935H5.7461V27.6533Z" fill="white"/>
<path d="M14.4675 18.4419V9.16775H14.2076V10.1791C14.2076 12.6516 13.0126 13.1498 11.6072 13.2286V13.7756C13.0132 13.8594 14.2076 14.3804 14.2076 16.8527V18.4419H14.4675Z" fill="white"/>
<path d="M7.22364 13.2417H4.86311V5.67227C4.86311 5.03662 4.57397 4.51656 4.22732 4.16976V4.14086H7.22364V3.6208H0.0671387V3.8809H1.07807C2.46485 3.8809 2.60962 4.0254 2.60962 5.41232V22.6023C2.60962 23.9889 2.46485 24.1333 1.07807 24.1333H0.0671387V24.3934H7.22364V23.8733H4.22732V23.8441C4.57397 23.4976 4.86311 22.9775 4.86311 22.3422V13.7617H7.22364V13.2417Z" fill="white"/>
<path d="M11.6072 4.14086H12.1759C14.9494 4.14086 16.4473 5.21058 16.6251 8.33008L16.7405 10.3524H17.2604L16.7405 2.52289L16.4806 2.54239L16.5671 3.8809H16.5385C16.3362 3.67874 15.9315 3.6208 15.4694 3.6208H11.6072V4.14086Z" fill="white"/>
<path d="M11.6072 24.3934H17.0295C17.4919 24.3934 17.8962 24.3357 18.0985 24.1333H18.1276L18.0409 25.4719L18.301 25.4911L18.792 17.6619H18.3296L18.1562 19.9731C17.9484 22.7459 16.6248 23.8733 13.8517 23.8733H11.6072V24.3934Z" fill="white"/>
</svg>
