<svg width="31" height="31" viewBox="0 0 31 31" fill="none" xmlns="http://www.w3.org/2000/svg">
<path d="M15.5754 0.25C7.29028 0.25 0.575439 6.96484 0.575439 15.25C0.575439 21.6074 4.53052 27.0332 10.1086 29.2188C9.97974 28.0293 9.85669 26.2129 10.1614 24.918C10.4368 23.7461 11.9192 17.4648 11.9192 17.4648C11.9192 17.4648 11.468 16.5684 11.468 15.2383C11.468 13.1523 12.675 11.5938 14.1809 11.5938C15.4583 11.5938 16.0793 12.5547 16.0793 13.709C16.0793 14.998 15.259 16.9199 14.8372 18.7012C14.4856 20.1953 15.5872 21.4141 17.0579 21.4141C19.7239 21.4141 21.7747 18.6016 21.7747 14.5469C21.7747 10.9551 19.1965 8.44141 15.511 8.44141C11.2454 8.44141 8.73755 11.6406 8.73755 14.9512C8.73755 16.2402 9.2356 17.623 9.85669 18.373C9.97974 18.5195 9.99731 18.6543 9.96216 18.8008C9.85083 19.2754 9.59302 20.2949 9.54614 20.5C9.48169 20.7754 9.32935 20.834 9.04224 20.6992C7.16724 19.8262 5.99536 17.0898 5.99536 14.8867C5.99536 10.1523 9.43482 5.81055 15.9036 5.81055C21.1067 5.81055 25.1497 9.51953 25.1497 14.4766C25.1497 19.6445 21.8918 23.8047 17.3684 23.8047C15.8508 23.8047 14.4211 23.0137 13.929 22.082C13.929 22.082 13.179 24.9473 12.9973 25.6504C12.6575 26.9512 11.7434 28.5859 11.134 29.582C12.5403 30.0156 14.0286 30.25 15.5754 30.25C23.8606 30.25 30.5754 23.5352 30.5754 15.25C30.5754 6.96484 23.8606 0.25 15.5754 0.25Z" fill="white"/>
</svg>
