<svg width="29" height="24" viewBox="0 0 29 24" fill="none" xmlns="http://www.w3.org/2000/svg">
<path d="M2.62981 10.4906C2.62981 10.4906 14.8258 5.35382 19.0556 3.54505C20.677 2.8216 26.1758 0.506366 26.1758 0.506366C26.1758 0.506366 28.7137 -0.506462 28.5022 1.95336C28.4316 2.96629 27.8677 6.51134 27.3037 10.3459C26.4577 15.7721 25.5413 21.7047 25.5413 21.7047C25.5413 21.7047 25.4003 23.3687 24.2019 23.6581C23.0034 23.9475 21.0294 22.6453 20.677 22.3558C20.395 22.1388 15.3897 18.8831 13.5568 17.2914C13.0633 16.8573 12.4994 15.9892 13.6273 14.9762C16.1652 12.5887 19.1965 9.62242 21.0294 7.74135C21.8755 6.87311 22.7214 4.84736 19.1965 7.30718C14.1913 10.8523 9.25653 14.1804 9.25653 14.1804C9.25653 14.1804 8.12854 14.9038 6.01366 14.2527C3.89869 13.6016 1.43129 12.7334 1.43129 12.7334C1.43129 12.7334 -0.260535 11.6482 2.62981 10.4906Z" fill="white"/>
</svg>
