<svg width="38" height="110" viewBox="0 0 38 110" fill="none" xmlns="http://www.w3.org/2000/svg">
<path d="M-14.6992 109.613H14.7697V108.574H10.7254C5.18221 108.574 4.48468 108.11 4.48468 102.564V7.7232C4.48468 2.17556 5.17828 1.71429 10.7254 1.71429H14.7697V0.442139H-14.6992V1.48253H-10.6549C-5.10781 1.48253 -4.52925 1.94885 -4.52925 7.49258V102.564C-4.52925 108.106 -5.11175 108.574 -10.6549 108.574H-14.6992V109.613Z" fill="white"/>
<path d="M20.1866 72.7675V35.6708H19.1467V39.7162C19.1467 49.6061 14.3668 51.5988 8.74504 51.9142V54.1021C14.369 54.4372 19.1467 56.5213 19.1467 66.4107V72.7675H20.1866Z" fill="white"/>
<path d="M-8.78904 51.9664H-18.2311V21.6888C-18.2311 19.1462 -19.3877 17.066 -20.7743 15.6788V15.5632H-8.78904V13.483H-37.415V14.5234H-33.3713C-27.8242 14.5234 -27.2451 15.1014 -27.2451 20.649V89.4088C-27.2451 94.9554 -27.8242 95.5328 -33.3713 95.5328H-37.415V96.5732H-8.78904V94.4929H-20.7743V94.3762C-19.3877 92.9902 -18.2311 90.9099 -18.2311 88.3684V54.0466H-8.78904V51.9664Z" fill="white"/>
<path d="M8.74504 15.5632H11.02C22.1142 15.5632 28.1057 19.8421 28.8167 32.3201L29.2785 40.4092H31.3582L29.2785 9.09132L28.2387 9.1693L28.5849 14.5234H28.4705C27.6612 13.7147 26.0423 13.483 24.1938 13.483H8.74504V15.5632Z" fill="white"/>
<path d="M8.74504 96.5732H30.4345C32.2841 96.5732 33.9014 96.3425 34.7106 95.5328H34.8267L34.4799 100.887L35.5203 100.964L37.4844 69.6475H35.6348L34.9412 78.8921C34.1101 89.9834 28.8156 94.4929 17.7231 94.4929H8.74504V96.5732Z" fill="white"/>
</svg>
