<svg width="38" height="110" viewBox="0 0 38 110" fill="none" xmlns="http://www.w3.org/2000/svg">
<path d="M23.3008 109.613H52.7697V108.574H48.7254C43.1822 108.574 42.4847 108.11 42.4847 102.564V7.7232C42.4847 2.17556 43.1783 1.71429 48.7254 1.71429H52.7697V0.442139H23.3008V1.48253H27.3451C32.8922 1.48253 33.4708 1.94885 33.4708 7.49258V102.564C33.4708 108.106 32.8883 108.574 27.3451 108.574H23.3008V109.613Z" fill="white"/>
<path d="M58.1866 72.7675V35.6708H57.1467V39.7162C57.1467 49.6061 52.3668 51.5988 46.745 51.9142V54.1021C52.369 54.4372 57.1467 56.5213 57.1467 66.4107V72.7675H58.1866Z" fill="white"/>
<path d="M29.211 51.9664H19.7689V21.6888C19.7689 19.1462 18.6123 17.066 17.2257 15.6788V15.5632H29.211V13.483H0.584961V14.5234H4.6287C10.1758 14.5234 10.7549 15.1014 10.7549 20.649V89.4088C10.7549 94.9554 10.1758 95.5328 4.6287 95.5328H0.584961V96.5732H29.211V94.4929H17.2257V94.3762C18.6123 92.9902 19.7689 90.9099 19.7689 88.3684V54.0466H29.211V51.9664Z" fill="white"/>
<path d="M46.745 15.5632H49.02C60.1142 15.5632 66.1057 19.8421 66.8167 32.3201L67.2785 40.4092H69.3582L67.2785 9.09132L66.2387 9.1693L66.5849 14.5234H66.4705C65.6612 13.7147 64.0423 13.483 62.1938 13.483H46.745V15.5632Z" fill="white"/>
<path d="M46.745 96.5732H68.4345C70.2841 96.5732 71.9014 96.3425 72.7106 95.5328H72.8267L72.4799 100.887L73.5203 100.964L75.4844 69.6475H73.6348L72.9412 78.8921C72.1101 89.9834 66.8156 94.4929 55.7231 94.4929H46.745V96.5732Z" fill="white"/>
</svg>
