<svg width="30" height="31" viewBox="0 0 30 31" fill="none" xmlns="http://www.w3.org/2000/svg">
<path fill-rule="evenodd" clip-rule="evenodd" d="M2.10883 2.35883C0 4.46766 0 7.86175 0 14.65V15.85C0 22.6383 0 26.0323 2.10883 28.1412C4.21766 30.25 7.61175 30.25 14.4 30.25H15.6C22.3883 30.25 25.7823 30.25 27.8912 28.1412C30 26.0323 30 22.6383 30 15.85V14.65C30 7.86175 30 4.46766 27.8912 2.35883C25.7823 0.25 22.3883 0.25 15.6 0.25H14.4C7.61175 0.25 4.21766 0.25 2.10883 2.35883ZM5.06257 9.37506C5.22507 17.1751 9.12506 21.8626 15.9626 21.8626H16.3501V17.4001C18.8626 17.6501 20.7625 19.4876 21.525 21.8626H25.0751C24.1001 18.3126 21.5374 16.3501 19.9374 15.6001C21.5374 14.6751 23.7874 12.4251 24.3249 9.37506H21.0999C20.3999 11.8501 18.3251 14.1001 16.3501 14.3126V9.37506H13.125V18.0251C11.125 17.5251 8.60006 15.1001 8.48756 9.37506H5.06257Z" fill="white"/>
</svg>
