<svg width="30" height="30" viewBox="0 0 30 30" fill="none" xmlns="http://www.w3.org/2000/svg">
<path d="M-0.00976562 30L2.14075 22.0039C0.406414 18.889 -0.144603 15.2541 0.588815 11.7664C1.32223 8.2786 3.29089 5.17186 6.13354 3.01623C8.97618 0.8606 12.5021 -0.199319 16.0644 0.030967C19.6266 0.261253 22.9862 1.7663 25.5267 4.26992C28.0671 6.77354 29.618 10.1078 29.8947 13.6609C30.1715 17.2139 29.1555 20.7475 27.0333 23.6131C24.911 26.4787 21.8249 28.4841 18.3411 29.2614C14.8573 30.0386 11.2096 29.5356 8.06738 27.8446L-0.00976562 30ZM8.45685 24.8524L8.95638 25.1482C11.2324 26.495 13.8907 27.0524 16.5171 26.7334C19.1435 26.4144 21.5905 25.237 23.4766 23.3846C25.3628 21.5323 26.5822 19.1091 26.9448 16.4927C27.3075 13.8762 26.793 11.2135 25.4815 8.91941C24.1701 6.62535 22.1354 4.82883 19.6944 3.8098C17.2535 2.79078 14.5434 2.60649 11.9866 3.28567C9.4298 3.96484 7.16985 5.46933 5.55893 7.56467C3.94801 9.66 3.07662 12.2285 3.08055 14.8699C3.07841 17.06 3.68512 19.2078 4.83314 21.0741L5.1464 21.5897L3.94414 26.0526L8.45685 24.8524Z" fill="white"/>
<path fill-rule="evenodd" clip-rule="evenodd" d="M20.5808 16.9231C20.288 16.6873 19.9451 16.5213 19.5783 16.4378C19.2115 16.3543 18.8304 16.3555 18.4641 16.4413C17.9138 16.6695 17.5582 17.5317 17.2026 17.9627C17.1276 18.0661 17.0174 18.1386 16.8927 18.1666C16.768 18.1946 16.6374 18.1762 16.5253 18.1149C14.5105 17.3271 12.8217 15.8824 11.7332 14.0154C11.6403 13.8989 11.5964 13.751 11.6106 13.6028C11.6248 13.4546 11.6961 13.3176 11.8094 13.2208C12.206 12.8289 12.4972 12.3434 12.656 11.8093C12.6913 11.2201 12.5561 10.6333 12.2666 10.1188C12.0427 9.39737 11.6167 8.75503 11.0389 8.26764C10.7409 8.13382 10.4105 8.08895 10.0875 8.13845C9.76446 8.18794 9.46271 8.32968 9.2186 8.54657C8.79482 8.91159 8.45845 9.36686 8.23427 9.87886C8.01008 10.3909 7.90378 10.9465 7.92321 11.505C7.92452 11.8186 7.96433 12.1308 8.04174 12.4348C8.23834 13.165 8.54069 13.8626 8.9392 14.5056C9.22673 14.9982 9.54044 15.475 9.879 15.9341C10.9793 17.4421 12.3623 18.7224 13.9514 19.704C14.7489 20.2028 15.6011 20.6084 16.4914 20.9127C17.4162 21.3312 18.4373 21.4919 19.4463 21.3776C20.0211 21.2907 20.5658 21.0641 21.0323 20.7178C21.4988 20.3714 21.873 19.9159 22.1217 19.3912C22.2679 19.0743 22.3122 18.72 22.2487 18.3769C22.0963 17.6754 21.1565 17.2612 20.5808 16.9231Z" fill="white"/>
</svg>
