<svg width="112" height="22" viewBox="0 0 112 22" fill="none" xmlns="http://www.w3.org/2000/svg">
<path d="M11.2581 21.3765C17.0741 21.3765 21.7889 16.5912 21.7889 10.6883C21.7889 4.7853 17.0741 0 11.2581 0C5.4421 0 0.727295 4.7853 0.727295 10.6883C0.727295 16.5912 5.4421 21.3765 11.2581 21.3765Z" fill="#FC3F1D"/>
<path d="M12.6622 6.05668H11.6969C9.89787 6.05668 8.97643 6.9919 8.97643 8.32794C8.97643 9.84211 9.6346 10.5547 10.951 11.4899L12.0479 12.247L8.88867 17.0567H6.51924L9.37133 12.7814C7.74783 11.5789 6.82639 10.4211 6.82639 8.50607C6.82639 6.05668 8.49376 4.40891 11.6969 4.40891H14.8561V17.1012H12.6622V6.05668Z" fill="white"/>
<path d="M29.0288 22V18.6599H36.9708V22H39.5596V16.4777H38.0678V2.583H28.8533L28.6339 9.21862C28.5023 13.004 28.239 15.2308 27.4931 16.4777H26.4839V22H29.0288ZM31.0472 9.5749L31.2228 4.76518H35.3473V16.4777H30.0819C30.5646 15.3644 30.9156 13.3603 31.0472 9.5749ZM45.4393 6.76923C42.4556 6.76923 40.3933 8.90688 40.3933 12.8259C40.3933 16.7004 42.4556 18.8826 45.4393 18.8826C48.4231 18.8826 50.5292 16.7449 50.5292 12.8259C50.5292 8.95142 48.4231 6.76923 45.4393 6.76923ZM45.4393 16.7004C43.9475 16.7004 43.2015 15.498 43.2015 12.8259C43.2015 10.1093 43.9475 8.95142 45.4393 8.95142C46.9312 8.95142 47.721 10.1093 47.721 12.8259C47.721 15.5425 46.9751 16.7004 45.4393 16.7004ZM57.2865 18.8826C58.559 18.8826 59.4365 18.6599 60.0947 18.17V15.9433C59.3927 16.4332 58.6028 16.7449 57.462 16.7449C55.5314 16.7449 54.7415 15.2308 54.7415 12.8259C54.7415 10.2874 55.7069 8.99595 57.5059 8.99595C58.559 8.99595 59.5682 9.35223 60.1386 9.7085V7.39271C59.5682 7.08097 58.559 6.8583 57.1987 6.8583C53.7323 6.8583 51.9333 9.39676 51.9333 12.915C51.8895 16.7449 53.6446 18.8826 57.2865 18.8826ZM70.3184 9.17409V6.9919H61.2355V9.17409H64.4387V18.6599H67.1591V9.17409H70.3184ZM79.7961 10.7328C79.7961 7.92712 78.392 6.8583 75.496 6.8583C73.697 6.8583 72.2929 7.43725 71.4592 7.92712V10.2429C72.2051 9.7085 73.7848 9.08502 75.1889 9.08502C76.5052 9.08502 77.0756 9.53036 77.0756 10.7773V11.4453H76.6368C72.4684 11.4453 70.6255 12.8259 70.6255 15.1862C70.6255 17.5466 72.0296 18.8826 74.1358 18.8826C75.7154 18.8826 76.4175 18.3482 76.944 17.8138H77.0756C77.1195 18.1255 77.2073 18.5263 77.295 18.749H79.9277C79.84 17.8138 79.7961 16.834 79.7961 15.8988V10.7328ZM77.1195 15.8988C76.7685 16.3887 76.1542 16.834 75.1889 16.834C74.048 16.834 73.4776 16.1215 73.4776 15.0972C73.4776 13.7166 74.3991 13.2267 76.7246 13.2267H77.1195V15.8988ZM86.5095 18.6599C89.1861 18.6599 90.8096 17.502 90.8096 15.2753C90.8096 13.7611 89.8881 12.8704 88.3524 12.6032C89.581 12.247 90.3708 11.3563 90.3708 9.97571C90.3708 7.97166 89.0544 6.9919 86.5534 6.9919H81.99V18.6599H86.5095ZM86.1585 9.08502C87.1238 9.08502 87.6942 9.48583 87.6942 10.3765C87.6942 11.1781 87.1238 11.668 86.0707 11.668H84.7105V9.08502H86.1585ZM86.2462 13.7166C87.387 13.7166 88.0013 14.1174 88.0013 15.0972C88.0013 16.166 87.2993 16.5668 86.2462 16.5668H84.7543V13.7166H86.2462ZM99.3658 18.6599H102.437L98.0934 12.3806L101.911 6.9919H99.1903L95.3729 12.3806V6.9919H92.6525V18.6599H95.3729V12.915L99.3658 18.6599ZM111.696 10.7328C111.696 7.92712 110.292 6.8583 107.396 6.8583C105.597 6.8583 104.192 7.43725 103.359 7.92712V10.2429C104.105 9.7085 105.684 9.08502 107.088 9.08502C108.405 9.08502 108.975 9.53036 108.975 10.7773V11.4453H108.536C104.368 11.4453 102.525 12.8259 102.525 15.1862C102.525 17.5466 103.929 18.8826 106.035 18.8826C107.615 18.8826 108.317 18.3482 108.844 17.8138H108.975C109.019 18.1255 109.107 18.5263 109.195 18.749H111.827C111.74 17.8138 111.696 16.834 111.696 15.8988V10.7328ZM108.975 15.8988C108.624 16.3887 108.01 16.834 107.045 16.834C105.904 16.834 105.333 16.1215 105.333 15.0972C105.333 13.7166 106.255 13.2267 108.58 13.2267H108.975V15.8988Z" fill="black"/>
</svg>
