<svg width="35" height="24" viewBox="0 0 35 24" fill="none" xmlns="http://www.w3.org/2000/svg">
<path fill-rule="evenodd" clip-rule="evenodd" d="M30.9501 0.724653C32.4232 1.12248 33.581 2.28327 33.9724 3.75469C34.6845 6.42504 34.6845 12.0001 34.6845 12.0001C34.6845 12.0001 34.6845 17.5751 33.9724 20.2455C33.5756 21.7223 32.4178 22.8831 30.9501 23.2755C28.2865 23.9894 17.5997 23.9894 17.5997 23.9894C17.5997 23.9894 6.9183 23.9894 4.24931 23.2755C2.7762 22.8777 1.61837 21.7169 1.22699 20.2455C0.514893 17.5751 0.514893 12.0001 0.514893 12.0001C0.514893 12.0001 0.514893 6.42504 1.22699 3.75469C1.6238 2.27782 2.78163 1.11703 4.24931 0.724653C6.9183 0.0107424 17.5997 0.0107422 17.5997 0.0107422C17.5997 0.0107422 28.2865 0.0107424 30.9501 0.724653ZM23.0627 12.0001L14.186 17.1392V6.86102L23.0627 12.0001Z" fill="white"/>
</svg>
